<?xml version="1.0" encoding="UTF-8" standalone="no"?>
<!-- Created with Inkscape (http://www.inkscape.org/) -->

<svg
   width="128mm"
   height="32mm"
   viewBox="0 0 128 32"
   version="1.1"
   id="svg5600"
   inkscape:version="1.2.2 (b0a8486541, 2022-12-01)"
   sodipodi:docname="chaos-bot-logo.svg"
   xml:space="preserve"
   xmlns:inkscape="http://www.inkscape.org/namespaces/inkscape"
   xmlns:sodipodi="http://sodipodi.sourceforge.net/DTD/sodipodi-0.dtd"
   xmlns="http://www.w3.org/2000/svg"
   xmlns:svg="http://www.w3.org/2000/svg"><sodipodi:namedview
     id="namedview5602"
     pagecolor="#ffffff"
     bordercolor="#000000"
     borderopacity="0.25"
     inkscape:showpageshadow="2"
     inkscape:pageopacity="0.0"
     inkscape:pagecheckerboard="0"
     inkscape:deskcolor="#d1d1d1"
     inkscape:document-units="mm"
     showgrid="false"
     inkscape:zoom="1.9704153"
     inkscape:cx="248.93229"
     inkscape:cy="49.735707"
     inkscape:window-width="1920"
     inkscape:window-height="1011"
     inkscape:window-x="0"
     inkscape:window-y="0"
     inkscape:window-maximized="1"
     inkscape:current-layer="layer1" /><defs
     id="defs5597" /><g
     inkscape:label="Layer 1"
     inkscape:groupmode="layer"
     id="layer1"
     transform="translate(-48.227121,-85.834526)"><text
       xml:space="preserve"
       style="font-weight:500;font-size:22.5778px;font-family:'JetBrains Mono';-inkscape-font-specification:'JetBrains Mono Medium';fill:#4f0872;fill-opacity:1;stroke-width:0.264583"
       x="56.913921"
       y="110.53752"
       id="text6185"
       inkscape:label="text6185"><tspan
         sodipodi:role="line"
         id="tspan6183"
         style="font-style:normal;font-variant:normal;font-weight:500;font-stretch:normal;font-family:'JetBrains Mono';-inkscape-font-specification:'JetBrains Mono Medium';fill:#4f0872;fill-opacity:1;stroke-width:0.264583"
         x="56.913921"
         y="110.53752">ChaosB t</tspan></text><path
       sodipodi:type="star"
       style="fill:#9d0fe5;fill-opacity:1;stroke-width:0.264583"
       id="path6341"
       inkscape:flatsided="false"
       sodipodi:sides="3"
       sodipodi:cx="97.308502"
       sodipodi:cy="77.583801"
       sodipodi:r1="3.0139523"
       sodipodi:r2="1.7716311"
       sodipodi:arg1="2.2617911"
       sodipodi:arg2="3.3089887"
       inkscape:rounded="0"
       inkscape:randomized="0"
       d="m 95.387698,79.90639 0.173937,-2.61777 0.695848,-2.529578 2.180087,1.459518 1.84276,1.867412 -2.354028,1.158251 z"
       inkscape:transform-center-x="-0.61825003"
       inkscape:transform-center-y="0.14566218"
       transform="rotate(-15.137897,168.70303,79.113262)" /><path
       sodipodi:type="star"
       style="fill:#9d0fe5;fill-opacity:1;stroke-width:0.264583"
       id="path6341-6"
       inkscape:flatsided="false"
       sodipodi:sides="3"
       sodipodi:cx="97.308502"
       sodipodi:cy="77.583801"
       sodipodi:r1="3.0139523"
       sodipodi:r2="1.7716311"
       sodipodi:arg1="2.2617911"
       sodipodi:arg2="3.3089887"
       inkscape:rounded="0"
       inkscape:randomized="0"
       d="m 95.387698,79.90639 0.173937,-2.61777 0.695848,-2.529578 2.180087,1.459518 1.84276,1.867412 -2.354028,1.158251 z"
       inkscape:transform-center-x="0.61825354"
       inkscape:transform-center-y="0.14566149"
       transform="matrix(-0.96530011,-0.26114304,-0.26114304,0.96530011,223.50269,46.849605)" /><path
       style="fill:#710872;fill-opacity:1;stroke:none;stroke-width:0.0324053"
       d="m 147.66085,97.670478 c -0.0286,3.68e-4 -0.0579,0.0018 -0.0871,0.0041 -1.16088,0.200379 -1.79917,1.42792 -1.89167,2.510402 -0.13515,0.98226 0.29771,2.24474 1.37621,2.46483 0.15644,0.0298 0.31899,0.0162 0.47191,-0.0253 1.2987,-0.43547 1.87989,-1.97358 1.69216,-3.247622 -0.0546,-0.822849 -0.67485,-1.717651 -1.56153,-1.706343 z m -4.92156,0.05266 c -0.72182,0.01772 -1.28411,0.749807 -1.39849,1.437986 -0.24112,1.363436 0.37909,3.057506 1.79951,3.488636 0.13304,0.029 0.27066,0.0319 0.40507,0.0111 0.96005,-0.16 1.36676,-1.23638 1.32659,-2.10533 -0.0289,-1.14626 -0.62432,-2.47166 -1.8147,-2.79395 -0.10881,-0.02886 -0.21486,-0.04102 -0.31798,-0.03848 z m 8.0669,3.872442 c -1.24871,0.0747 -2.1048,1.32063 -2.22685,2.48407 -0.16525,0.83909 0.28209,1.96138 1.2395,2.02837 1.33499,-0.0165 2.24573,-1.44297 2.28357,-2.6704 0.0844,-0.8118 -0.39376,-1.79722 -1.29622,-1.84204 z m -10.92971,0.27645 c -0.53125,-0.005 -1.05373,0.31365 -1.22735,0.85368 -0.46316,1.4446 0.46693,3.27418 1.99698,3.57775 0.63857,0.10928 1.19966,-0.38111 1.35799,-0.97114 0.33554,-1.26202 -0.35366,-2.72741 -1.52001,-3.30029 -0.19003,-0.10664 -0.39972,-0.15821 -0.60761,-0.16 z m 5.59803,2.5904 c -1.04149,0.002 -2.09931,0.53074 -2.7737,1.31748 -0.72838,0.91698 -1.32506,1.98407 -1.55849,3.14129 -0.28359,0.83303 0.35916,1.79171 1.24963,1.79748 1.07128,0.0298 1.99198,-0.70588 3.05724,-0.7605 0.90379,-0.13778 1.71305,0.33232 2.52559,0.64 0.69183,0.2959 1.64782,0.18251 2.00103,-0.56203 0.27783,-0.75889 -0.13111,-1.56809 -0.46988,-2.24205 -0.69095,-1.0939 -1.43118,-2.2436 -2.56407,-2.9266 -0.45409,-0.28146 -0.95872,-0.40615 -1.46735,-0.40507 z"
       id="path1575" /><path
       d="m 61.510841,91.502512 1.730271,1.245244 0.835054,-1.961413 0.485028,2.975512 -4.489325,1.253298 -1.126355,-2.796472 1.730268,1.245246 z"
       style="display:inline;fill:#cd7f32;fill-opacity:1;fill-rule:evenodd;stroke:#cd7f32;stroke-width:0.199756;stroke-linecap:butt;stroke-linejoin:miter;stroke-miterlimit:4;stroke-dasharray:none;stroke-opacity:1"
       id="path10765" /></g></svg>
